<?xml version="1.0" standalone="no"?>
<!DOCTYPE svg PUBLIC "-//W3C//DTD SVG 20010904//EN"
 "http://www.w3.org/TR/2001/REC-SVG-20010904/DTD/svg10.dtd">
<svg version="1.0" xmlns="http://www.w3.org/2000/svg"
 width="225.000000pt" height="225.000000pt" viewBox="0 0 225.000000 225.000000"
 preserveAspectRatio="xMidYMid meet">
<metadata>
Created by potrace 1.14, written by Peter Selinger 2001-2017
</metadata>
<g transform="translate(0.000000,225.000000) scale(0.100000,-0.100000)"
fill="#000000" stroke="none">
<path d="M689 2226 c-243 -101 -475 -319 -596 -560 -93 -184 -93 -186 -93
-546 0 -306 1 -319 24 -386 102 -299 342 -569 627 -704 l64 -30 448 0 449 0
70 35 c223 112 376 252 512 469 l56 89 0 527 0 527 -56 89 c-139 221 -296 363
-525 474 l-83 40 -420 0 c-418 -1 -421 -1 -477 -24z m731 -517 c97 -22 208
-101 261 -185 103 -166 72 -397 -72 -529 -110 -101 -162 -115 -426 -115 l-203
0 0 -180 0 -180 -120 0 -120 0 0 600 0 600 318 0 c180 0 336 -5 362 -11z"/>
<path d="M980 1300 l0 -180 189 0 c110 0 202 4 218 11 113 42 151 200 70 288
-49 53 -86 61 -289 61 l-188 0 0 -180z"/>
</g>
</svg>
